{
    "asset" : {
        "generator" : "Khronos glTF Blender I/O v3.3.27",
        "version" : "2.0"
    },
    "extensionsUsed" : [
        "KHR_materials_specular",
        "KHR_materials_ior"
    ],
    "scene" : 1,
    "scenes" : [
        {
            "name" : "Scene",
            "nodes" : [
                0,
                1,
                2
            ]
        },
        {
            "name" : "Scene.001",
            "nodes" : [
                3
            ]
        }
    ],
    "nodes" : [
        {
            "mesh" : 0,
            "name" : "Plano",
            "rotation" : [
                0,
                0.39683011174201965,
                0,
                0.9178920388221741
            ],
            "scale" : [
                3.5831973552703857,
                1,
                3.5831973552703857
            ],
            "translation" : [
                0,
                -0.32577529549598694,
                0
            ]
        },
        {
            "mesh" : 1,
            "name" : "TQ_ARD-node",
            "translation" : [
                -0.2540064752101898,
                0.1024983748793602,
                0.2694694697856903
            ]
        },
        {
            "mesh" : 1,
            "name" : "TQ_ARD-node.001",
            "rotation" : [
                0,
                0.7071068286895752,
                0,
                0.7071068286895752
            ],
            "translation" : [
                0.3168350160121918,
                0.1024983748793602,
                -0.2994915544986725
            ]
        },
        {
            "mesh" : 2,
            "name" : "TQ_ARD-node.003",
            "rotation" : [
                0,
                0.7071068286895752,
                0,
                0.7071068286895752
            ],
            "translation" : [
                0.006376028060913086,
                0.1024983748793602,
                0.0005025267601013184
            ]
        }
    ],
    "materials" : [
        {
            "doubleSided" : true,
            "name" : "texturescom_terracotta_plain",
            "pbrMetallicRoughness" : {
                "metallicFactor" : 0
            }
        },
        {
            "doubleSided" : true,
            "extensions" : {
                "KHR_materials_specular" : {
                    "specularColorFactor" : [
                        0,
                        0,
                        0
                    ]
                },
                "KHR_materials_ior" : {
                    "ior" : 0
                }
            },
            "name" : "TQ_ARD_front",
            "pbrMetallicRoughness" : {
                "baseColorTexture" : {
                    "index" : 0
                },
                "metallicFactor" : 0,
                "roughnessFactor" : 0.5
            }
        },
        {
            "doubleSided" : true,
            "extensions" : {
                "KHR_materials_specular" : {
                    "specularColorFactor" : [
                        0,
                        0,
                        0
                    ]
                },
                "KHR_materials_ior" : {
                    "ior" : 0
                }
            },
            "name" : "TQ_ARD_back",
            "pbrMetallicRoughness" : {
                "baseColorFactor" : [
                    0.996078372001648,
                    0.9019607901573181,
                    0.6627451181411743,
                    1
                ],
                "metallicFactor" : 0,
                "roughnessFactor" : 0.5
            }
        },
        {
            "doubleSided" : true,
            "extensions" : {
                "KHR_materials_specular" : {
                    "specularColorFactor" : [
                        0,
                        0,
                        0
                    ]
                },
                "KHR_materials_ior" : {
                    "ior" : 0
                }
            },
            "name" : "TQ_ARD_edge",
            "pbrMetallicRoughness" : {
                "baseColorTexture" : {
                    "index" : 1
                },
                "metallicFactor" : 0,
                "roughnessFactor" : 0.5
            }
        }
    ],
    "meshes" : [
        {
            "name" : "Plano",
            "primitives" : [
                {
                    "attributes" : {
                        "POSITION" : 0,
                        "NORMAL" : 1,
                        "TEXCOORD_0" : 2
                    },
                    "indices" : 3,
                    "material" : 0
                }
            ]
        },
        {
            "name" : "TQ_ARD-geom",
            "primitives" : [
                {
                    "attributes" : {
                        "POSITION" : 4,
                        "NORMAL" : 5,
                        "TEXCOORD_0" : 6
                    },
                    "indices" : 7,
                    "material" : 1
                },
                {
                    "attributes" : {
                        "POSITION" : 8,
                        "NORMAL" : 9,
                        "TEXCOORD_0" : 10
                    },
                    "indices" : 11,
                    "material" : 2
                },
                {
                    "attributes" : {
                        "POSITION" : 12,
                        "NORMAL" : 13,
                        "TEXCOORD_0" : 14
                    },
                    "indices" : 15,
                    "material" : 3
                }
            ]
        },
        {
            "name" : "TQ_ARD-geom.001",
            "primitives" : [
                {
                    "attributes" : {
                        "POSITION" : 16,
                        "NORMAL" : 17,
                        "TEXCOORD_0" : 18
                    },
                    "indices" : 7,
                    "material" : 1
                },
                {
                    "attributes" : {
                        "POSITION" : 19,
                        "NORMAL" : 20,
                        "TEXCOORD_0" : 21
                    },
                    "indices" : 11,
                    "material" : 2
                },
                {
                    "attributes" : {
                        "POSITION" : 22,
                        "NORMAL" : 23,
                        "TEXCOORD_0" : 24
                    },
                    "indices" : 15,
                    "material" : 3
                }
            ]
        }
    ],
    "textures" : [
        {
            "sampler" : 0,
            "source" : 0
        },
        {
            "sampler" : 0,
            "source" : 1
        }
    ],
    "images" : [
        {
            "bufferView" : 8,
            "mimeType" : "image/jpeg",
            "name" : "3"
        },
        {
            "bufferView" : 17,
            "mimeType" : "image/png",
            "name" : "TQ_ARD-I1"
        }
    ],
    "accessors" : [
        {
            "bufferView" : 0,
            "componentType" : 5126,
            "count" : 60,
            "max" : [
                0.5,
                0.5780828595161438,
                0.5
            ],
            "min" : [
                -0.5,
                0,
                -0.5
            ],
            "type" : "VEC3"
        },
        {
            "bufferView" : 1,
            "componentType" : 5126,
            "count" : 60,
            "type" : "VEC3"
        },
        {
            "bufferView" : 2,
            "componentType" : 5126,
            "count" : 60,
            "type" : "VEC2"
        },
        {
            "bufferView" : 3,
            "componentType" : 5123,
            "count" : 198,
            "type" : "SCALAR"
        },
        {
            "bufferView" : 4,
            "componentType" : 5126,
            "count" : 1881,
            "max" : [
                0.22880706191062927,
                0.24886958301067352,
                0.2344343662261963
            ],
            "min" : [
                -0.23436912894248962,
                -0.4212735593318939,
                -0.22874224185943604
            ],
            "type" : "VEC3"
        },
        {
            "bufferView" : 5,
            "componentType" : 5126,
            "count" : 1881,
            "type" : "VEC3"
        },
        {
            "bufferView" : 6,
            "componentType" : 5126,
            "count" : 1881,
            "type" : "VEC2"
        },
        {
            "bufferView" : 7,
            "componentType" : 5123,
            "count" : 3483,
            "type" : "SCALAR"
        },
        {
            "bufferView" : 9,
            "componentType" : 5126,
            "count" : 1674,
            "max" : [
                0.2267765998840332,
                0.245695099234581,
                0.2328473925590515
            ],
            "min" : [
                -0.23232737183570862,
                -0.4194536507129669,
                -0.22715505957603455
            ],
            "type" : "VEC3"
        },
        {
            "bufferView" : 10,
            "componentType" : 5126,
            "count" : 1674,
            "type" : "VEC3"
        },
        {
            "bufferView" : 11,
            "componentType" : 5126,
            "count" : 1674,
            "type" : "VEC2"
        },
        {
            "bufferView" : 12,
            "componentType" : 5123,
            "count" : 3483,
            "type" : "SCALAR"
        },
        {
            "bufferView" : 13,
            "componentType" : 5126,
            "count" : 1162,
            "max" : [
                0.22880706191062927,
                0.24886958301067352,
                0.23443424701690674
            ],
            "min" : [
                -0.23436912894248962,
                -0.4212735593318939,
                -0.22874221205711365
            ],
            "type" : "VEC3"
        },
        {
            "bufferView" : 14,
            "componentType" : 5126,
            "count" : 1162,
            "type" : "VEC3"
        },
        {
            "bufferView" : 15,
            "componentType" : 5126,
            "count" : 1162,
            "type" : "VEC2"
        },
        {
            "bufferView" : 16,
            "componentType" : 5123,
            "count" : 2442,
            "type" : "SCALAR"
        },
        {
            "bufferView" : 18,
            "componentType" : 5126,
            "count" : 1881,
            "max" : [
                0.22880706191062927,
                0.24886958301067352,
                0.2344343662261963
            ],
            "min" : [
                -0.23436912894248962,
                -0.4212735593318939,
                -0.22874224185943604
            ],
            "type" : "VEC3"
        },
        {
            "bufferView" : 19,
            "componentType" : 5126,
            "count" : 1881,
            "type" : "VEC3"
        },
        {
            "bufferView" : 20,
            "componentType" : 5126,
            "count" : 1881,
            "type" : "VEC2"
        },
        {
            "bufferView" : 21,
            "componentType" : 5126,
            "count" : 1674,
            "max" : [
                0.2267765998840332,
                0.245695099234581,
                0.2328473925590515
            ],
            "min" : [
                -0.23232737183570862,
                -0.4194536507129669,
                -0.22715505957603455
            ],
            "type" : "VEC3"
        },
        {
            "bufferView" : 22,
            "componentType" : 5126,
            "count" : 1674,
            "type" : "VEC3"
        },
        {
            "bufferView" : 23,
            "componentType" : 5126,
            "count" : 1674,
            "type" : "VEC2"
        },
        {
            "bufferView" : 24,
            "componentType" : 5126,
            "count" : 1162,
            "max" : [
                0.22880706191062927,
                0.24886958301067352,
                0.23443424701690674
            ],
            "min" : [
                -0.23436912894248962,
                -0.4212735593318939,
                -0.22874221205711365
            ],
            "type" : "VEC3"
        },
        {
            "bufferView" : 25,
            "componentType" : 5126,
            "count" : 1162,
            "type" : "VEC3"
        },
        {
            "bufferView" : 26,
            "componentType" : 5126,
            "count" : 1162,
            "type" : "VEC2"
        }
    ],
    "bufferViews" : [
        {
            "buffer" : 0,
            "byteLength" : 720,
            "byteOffset" : 0,
            "target" : 34962
        },
        {
            "buffer" : 0,
            "byteLength" : 720,
            "byteOffset" : 720,
            "target" : 34962
        },
        {
            "buffer" : 0,
            "byteLength" : 480,
            "byteOffset" : 1440,
            "target" : 34962
        },
        {
            "buffer" : 0,
            "byteLength" : 396,
            "byteOffset" : 1920,
            "target" : 34963
        },
        {
            "buffer" : 0,
            "byteLength" : 22572,
            "byteOffset" : 2316,
            "target" : 34962
        },
        {
            "buffer" : 0,
            "byteLength" : 22572,
            "byteOffset" : 24888,
            "target" : 34962
        },
        {
            "buffer" : 0,
            "byteLength" : 15048,
            "byteOffset" : 47460,
            "target" : 34962
        },
        {
            "buffer" : 0,
            "byteLength" : 6966,
            "byteOffset" : 62508,
            "target" : 34963
        },
        {
            "buffer" : 0,
            "byteLength" : 2663341,
            "byteOffset" : 69476
        },
        {
            "buffer" : 0,
            "byteLength" : 20088,
            "byteOffset" : 2732820,
            "target" : 34962
        },
        {
            "buffer" : 0,
            "byteLength" : 20088,
            "byteOffset" : 2752908,
            "target" : 34962
        },
        {
            "buffer" : 0,
            "byteLength" : 13392,
            "byteOffset" : 2772996,
            "target" : 34962
        },
        {
            "buffer" : 0,
            "byteLength" : 6966,
            "byteOffset" : 2786388,
            "target" : 34963
        },
        {
            "buffer" : 0,
            "byteLength" : 13944,
            "byteOffset" : 2793356,
            "target" : 34962
        },
        {
            "buffer" : 0,
            "byteLength" : 13944,
            "byteOffset" : 2807300,
            "target" : 34962
        },
        {
            "buffer" : 0,
            "byteLength" : 9296,
            "byteOffset" : 2821244,
            "target" : 34962
        },
        {
            "buffer" : 0,
            "byteLength" : 4884,
            "byteOffset" : 2830540,
            "target" : 34963
        },
        {
            "buffer" : 0,
            "byteLength" : 767,
            "byteOffset" : 2835424
        },
        {
            "buffer" : 0,
            "byteLength" : 22572,
            "byteOffset" : 2836192,
            "target" : 34962
        },
        {
            "buffer" : 0,
            "byteLength" : 22572,
            "byteOffset" : 2858764,
            "target" : 34962
        },
        {
            "buffer" : 0,
            "byteLength" : 15048,
            "byteOffset" : 2881336,
            "target" : 34962
        },
        {
            "buffer" : 0,
            "byteLength" : 20088,
            "byteOffset" : 2896384,
            "target" : 34962
        },
        {
            "buffer" : 0,
            "byteLength" : 20088,
            "byteOffset" : 2916472,
            "target" : 34962
        },
        {
            "buffer" : 0,
            "byteLength" : 13392,
            "byteOffset" : 2936560,
            "target" : 34962
        },
        {
            "buffer" : 0,
            "byteLength" : 13944,
            "byteOffset" : 2949952,
            "target" : 34962
        },
        {
            "buffer" : 0,
            "byteLength" : 13944,
            "byteOffset" : 2963896,
            "target" : 34962
        },
        {
            "buffer" : 0,
            "byteLength" : 9296,
            "byteOffset" : 2977840,
            "target" : 34962
        }
    ],
    "samplers" : [
        {
            "magFilter" : 9729,
            "minFilter" : 9987
        }
    ],
    "buffers" : [
        {
            "byteLength" : 2987136,
            "uri" : "data:application/octet-stream;base64,"
        }
    ]
}
